<?xml version="1.0" encoding="UTF-8" standalone="no"?>
<!-- Created with Inkscape (http://www.inkscape.org/) -->

<svg
   xmlns:dc="http://purl.org/dc/elements/1.1/"
   xmlns:cc="http://creativecommons.org/ns#"
   xmlns:rdf="http://www.w3.org/1999/02/22-rdf-syntax-ns#"
   xmlns:svg="http://www.w3.org/2000/svg"
   xmlns="http://www.w3.org/2000/svg"
   xmlns:sodipodi="http://sodipodi.sourceforge.net/DTD/sodipodi-0.dtd"
   xmlns:inkscape="http://www.inkscape.org/namespaces/inkscape"
   width="210mm"
   height="297mm"
   viewBox="0 0 210 297"
   version="1.1"
   id="svg10976"
   inkscape:version="0.92.4 (5da689c313, 2019-01-14)"
   sodipodi:docname="linear relationsip.svg">
  <defs
     id="defs10970" />
  <sodipodi:namedview
     id="base"
     pagecolor="#ffffff"
     bordercolor="#666666"
     borderopacity="1.0"
     inkscape:pageopacity="0.0"
     inkscape:pageshadow="2"
     inkscape:zoom="0.7"
     inkscape:cx="163.50105"
     inkscape:cy="629.6662"
     inkscape:document-units="mm"
     inkscape:current-layer="layer1"
     showgrid="false"
     inkscape:window-width="1920"
     inkscape:window-height="1017"
     inkscape:window-x="-8"
     inkscape:window-y="-8"
     inkscape:window-maximized="1" />
  <metadata
     id="metadata10973">
    <rdf:RDF>
      <cc:Work
         rdf:about="">
        <dc:format>image/svg+xml</dc:format>
        <dc:type
           rdf:resource="http://purl.org/dc/dcmitype/StillImage" />
        <dc:title></dc:title>
      </cc:Work>
    </rdf:RDF>
  </metadata>
  <g
     inkscape:label="Layer 1"
     inkscape:groupmode="layer"
     id="layer1">
    <path
       style="opacity:1;fill:#000000;fill-opacity:1;stroke:none;stroke-width:0.56499994;stroke-miterlimit:4;stroke-dasharray:none;stroke-opacity:1"
       id="path11549"
       d="m -22.000484,66.448981 c 1.142978,-0.839409 2.123477,-1.875961 3.115648,-2.88341 0.79091,-0.818999 1.576957,-1.642428 2.346363,-2.481694 0.373001,-0.398732 0.736881,-0.80478 1.080295,-1.22928 0.153953,-0.166098 0.287509,-0.348041 0.442495,-0.513186 0.265198,-0.168929 0.744502,0.01138 1.058138,0.09027 0.4303,0.137178 0.850695,0.304577 1.265005,0.484105 0.765803,0.369136 1.543365,0.710935 2.305691,1.08734 0.9191097,0.439936 1.8226999,0.910981 2.7361683,1.362321 0.6436611,0.325747 1.2803145,0.665326 1.9333207,0.972071 0.249677,0.121383 0.4964171,0.24897 0.7188081,0.416057 0.1172763,0.04762 0.2179735,0.128556 0.3235155,0.198202 0.09666,0.101942 0.2601656,0.161579 0.3146261,0.295045 0.1275877,0.341778 0.1168244,0.654442 -0.1956363,0.873715 -0.076926,0.03645 -0.1538518,0.0729 -0.2307775,0.109344 -0.05079,0.198361 -0.3313166,0.126532 -0.2805261,-0.07183 v 0 c -0.071371,0.01476 -0.1427419,0.02951 -0.2141127,0.04426 -0.3495485,0.124161 -0.241232,0.333065 -0.350977,0.611896 -0.1084355,-0.0091 -0.1826577,-0.117432 -0.278707,-0.164351 -0.1001652,-0.07833 -0.2097276,-0.142975 -0.3060425,-0.226999 -0.1759741,-0.126024 -0.3207882,-0.290804 -0.5052317,-0.406556 -0.5547375,-0.417873 -1.1485517,-0.778955 -1.7527471,-1.120765 -0.847967,-0.497525 -1.7169048,-0.95895 -2.6176718,-1.354505 -0.757674,-0.321545 -1.506371,-0.665845 -2.281844,-0.943202 -0.346281,-0.129892 -0.690993,-0.266393 -1.0571,-0.330727 -0.340934,-0.0917 0.292472,0.170887 0.404311,-0.02524 0.0894,-0.12977 0.02451,-0.174882 -0.09779,-0.06964 -0.427802,0.346879 -0.813736,0.741595 -1.226074,1.106183 -0.845502,0.766832 -1.698846,1.524892 -2.533655,2.30346 -1.020046,0.972222 -2.06977,1.93357 -2.9121,3.069154 -0.849978,0.850923 -2.053368,-0.351126 -1.203389,-1.20205 z"
       inkscape:connector-curvature="0"
       inkscape:export-xdpi="96"
       inkscape:export-ydpi="96" />
    <path
       style="opacity:1;fill:#000000;fill-opacity:1;stroke:none;stroke-width:0.56499994;stroke-miterlimit:4;stroke-dasharray:none;stroke-opacity:1"
       id="path11561"
       d="m -13.736711,59.3412 c -0.176159,1.262168 -0.03266,2.539264 0.03674,3.80437 0.06315,1.378505 0.09368,2.757672 0.09462,4.137551 0.03277,1.417937 0.04135,2.835553 0.132924,4.251262 0.07354,1.421479 0.247674,2.834359 0.371174,4.251579 0.151244,1.42127 0.298505,2.843088 0.457073,4.263598 0.162263,1.319949 0.27468,2.645754 0.347818,3.973486 0.06381,1.239801 0.112919,2.480903 0.142703,3.722008 0.0383,1.112097 0.04967,2.224585 0.06594,3.337118 0.0016,1.12137 -0.0021,2.242902 0.01281,3.364182 0.03141,1.177235 0.03639,2.354853 0.04509,3.532384 0.0021,1.232164 -0.05802,2.461912 -0.161563,3.689282 -0.115406,1.31602 -0.191458,2.63421 -0.248248,3.95382 -0.0439,1.31484 -0.0526,2.63027 -0.08642,3.94534 -0.04394,1.32655 -0.04962,2.65402 -0.06302,3.98113 -0.01797,1.30106 -0.0013,2.60206 0.05099,3.90212 0.06741,1.29638 0.167624,2.59073 0.251561,3.88612 0.06392,1.33035 0.152299,2.65933 0.219183,3.98946 0.100034,1.47208 0.171633,2.9462 0.220075,4.42087 0.05694,1.55041 0.139211,3.099 0.248243,4.64659 0.122997,1.58119 0.254537,3.16171 0.372721,4.74332 0.103407,1.61351 0.177234,3.22917 0.244827,4.84464 0.06651,1.68401 0.08355,3.36928 0.108487,5.05429 0.04356,1.72823 -0.0083,3.45474 -0.101414,5.18024 -0.113282,1.66678 -0.232664,3.33292 -0.346856,4.99963 -0.09725,1.51354 -0.142812,3.02957 -0.195263,4.54511 -0.04217,1.49654 -0.132643,2.99087 -0.228848,4.4847 -0.07291,1.42723 -0.211543,2.84874 -0.374812,4.26795 -0.158768,1.41053 -0.373541,2.81253 -0.635677,4.20726 -0.259733,1.30911 -0.576919,2.60638 -0.920133,3.89589 -0.334201,1.29035 -0.690092,2.57644 -0.961213,3.88199 -0.243946,1.23467 -0.464063,2.47351 -0.718833,3.70607 -0.253352,1.17344 -0.553832,2.33642 -0.871337,3.49398 -0.25891,1.00754 -0.493778,2.02132 -0.715169,3.03768 -0.105748,0.64513 -0.247263,1.28845 -0.28445,1.94239 -0.01013,0.24464 -0.06065,0.49592 -0.03793,0.73945 -0.0024,-0.004 -0.0073,-0.005 -0.01095,-0.008 0.03749,-0.2859 -0.911532,-0.58064 -0.753499,-0.25792 -0.0249,0.15307 -0.0348,0.3055 -0.03742,0.461 0.664475,0.026 0.62769,0.96572 -0.03679,0.93971 v 0 c -0.04276,0.17011 -0.07874,0.35652 -0.251603,0.44063 -0.419086,0.17972 -0.909232,-0.003 -1.01846,-0.40239 -0.133281,-0.28523 -0.299969,-0.55591 -0.337913,-0.87708 -0.04639,-0.43621 -0.0398,-0.87122 0.0071,-1.30763 0.110599,-0.73005 0.235882,-1.45687 0.430589,-2.17061 0.223348,-1.05486 0.447275,-2.10936 0.746392,-3.14635 0.28752,-1.12523 0.603811,-2.24345 0.852326,-3.37835 0.269301,-1.22811 0.517316,-2.46067 0.771631,-3.69193 0.286419,-1.32956 0.54017,-2.66641 0.871987,-3.98597 0.288946,-1.26048 0.598173,-2.51632 0.863653,-3.78215 0.266581,-1.31966 0.495094,-2.64786 0.616085,-3.98982 0.128288,-1.39333 0.218551,-2.78996 0.324178,-4.18518 0.10586,-1.46406 0.196397,-2.92944 0.245988,-4.39661 0.04887,-1.55039 0.09703,-3.10164 0.223023,-4.64811 0.136353,-1.64694 0.307922,-3.2911 0.39003,-4.94239 0.08746,-1.67136 0.150426,-3.34475 0.110255,-5.01869 -0.02315,-1.65951 -0.09024,-3.31691 -0.191847,-4.97355 -0.08174,-1.59078 -0.154138,-3.18205 -0.2902,-4.76936 -0.121502,-1.58472 -0.249632,-3.1689 -0.359921,-4.75445 -0.114043,-1.56645 -0.229473,-3.13305 -0.318688,-4.7011 -0.09416,-1.46678 -0.162385,-2.93503 -0.238752,-4.40283 -0.07957,-1.32827 -0.122322,-2.6581 -0.193567,-3.98681 -0.06356,-1.31194 -0.14642,-2.62266 -0.216124,-3.93427 -0.04936,-1.3414 -0.04112,-2.68227 -0.0226,-4.0243 0.01326,-1.34195 0.05435,-2.68305 0.105304,-4.02403 0.03922,-1.32872 0.07533,-2.65752 0.126312,-3.98586 0.06258,-1.34523 0.174811,-2.68718 0.282769,-4.0294 0.08155,-1.17143 0.168566,-2.343783 0.175262,-3.518581 0.02215,-1.172929 0.01754,-2.346401 0.05173,-3.519188 0.01487,-1.121582 0.01146,-2.243415 0.01378,-3.36509 0.01722,-1.111943 0.03046,-2.22382 0.06937,-3.335314 0.02856,-1.225137 0.07815,-2.449782 0.09321,-3.675335 0.0069,-1.297567 -0.0011,-2.594488 -0.07216,-3.890695 -0.0732,-1.424596 -0.152345,-2.849105 -0.246782,-4.272407 -0.125553,-1.432438 -0.226444,-2.867215 -0.332351,-4.301199 -0.0604,-1.43864 -0.111467,-2.877285 -0.0526,-4.317081 -0.01209,-1.369108 -0.0011,-2.738155 -0.02159,-4.107167 -0.0076,-1.280155 0.04439,-2.568065 -0.117922,-3.840792 0,-0.904359 1.278956,-0.904359 1.278956,0 z"
       inkscape:connector-curvature="0"
       inkscape:export-xdpi="96"
       inkscape:export-ydpi="96" />
    <path
       style="opacity:1;fill:#000000;fill-opacity:1;stroke:none;stroke-width:0.56499994;stroke-miterlimit:4;stroke-dasharray:none;stroke-opacity:1"
       id="path11563"
       d="m -19.621355,196.70361 c 1.441624,0.23017 2.906995,0.15766 4.360792,0.16955 2.060619,0.0815 4.117296,-0.0111 6.1763081,-0.0835 2.5287386,-0.13646 5.0547661,-0.31546 7.5818014,-0.47929 2.47811813,-0.18183 4.9616212,-0.27693 7.4435018,-0.3913 2.2463439,-0.0815 4.4921147,-0.17735 6.7380147,-0.27008 2.511189,-0.20828 5.026579,-0.31496 7.543947,-0.41653 3.213837,-0.13849 6.424849,-0.34067 9.63266,-0.57982 3.577775,-0.28291 7.155008,-0.57171 10.735001,-0.82546 3.504461,-0.25514 7.014284,-0.41827 10.525841,-0.53284 3.298611,-0.0876 6.59868,-0.11013 9.898319,-0.12306 3.264128,-0.0243 6.528192,0.008 9.792319,0.009 3.4133,0.0422 6.826105,0.008 10.238679,-0.0625 3.580763,-0.0793 7.160657,-0.19661 10.74089,-0.29822 3.711522,-0.12188 7.425307,-0.1509 11.138251,-0.20454 3.85372,-0.0567 7.70656,-0.14794 11.55932,-0.24939 3.86325,-0.10632 7.72698,-0.1924 11.5911,-0.2594 3.84987,-0.0559 7.69983,-0.10331 11.54942,-0.17678 3.82765,-0.0609 7.65449,-0.16855 11.48092,-0.28167 3.58975,-0.12625 7.17946,-0.24784 10.77002,-0.34879 3.1277,-0.0995 6.25681,-0.14911 9.38464,-0.24311 2.52587,-0.10096 5.05429,-0.0827 7.58018,-0.17307 1.98503,-0.005 3.96915,-0.0674 5.9538,-0.0953 1.14483,-0.0419 2.29009,-0.0485 3.43545,-0.0557 0.36277,0.002 0.71843,-0.002 1.07637,-0.0581 0.99226,-0.0901 0.25548,0.61817 -0.0584,2.44273 -0.0201,0.11693 -0.57985,0.0864 -0.63612,0.0846 -0.10963,-0.0231 -0.40183,-0.0927 -0.1563,-0.0196 -0.12238,-0.007 -0.24119,-0.0299 -0.35525,-0.075 -0.0765,-0.002 -0.14108,-0.039 -0.21495,-0.0561 -0.2058,-0.0424 -0.408,-0.096 -0.61488,-0.13364 -0.32401,-0.0547 -0.64293,-0.11964 -0.95411,-0.22718 -0.48111,-0.16867 -0.94107,-0.39226 -1.40847,-0.59583 -0.61726,-0.26775 -1.25611,-0.48528 -1.89746,-0.68771 -0.61553,-0.1831 -1.24488,-0.31511 -1.86992,-0.4612 -0.59289,-0.12595 -1.14734,-0.36808 -1.70382,-0.6003 -0.47517,-0.20311 -0.94404,-0.41268 -1.41604,-0.62325 -0.31476,-0.10618 -0.63463,-0.19262 -0.94767,-0.30727 -0.18381,-0.0862 -0.40879,-0.15002 -0.5438,-0.3099 -0.095,-0.0836 -0.20884,-0.13872 -0.30926,-0.21501 -0.0723,-0.0565 -0.16037,-0.0893 -0.24617,-0.12204 -0.16577,-0.0545 -0.31692,-0.11721 -0.46101,-0.21579 -0.12894,-0.0684 -0.19696,-0.18127 -0.31585,-0.25459 -0.1816,-0.0892 -0.36414,-0.17134 -0.53821,-0.27645 -0.10144,-0.0729 -0.21678,-0.12352 -0.30536,-0.21336 -0.30733,-0.81074 1.05976,-1.51569 1.44637,-1.96663 0.37009,0.22149 0.72809,0.46292 1.09126,0.69577 0.70789,0.42459 1.46165,0.768 2.2148,1.10347 0.99163,0.47239 2.02641,0.84064 3.04537,1.24748 1.06625,0.4119 2.14698,0.78214 3.22555,1.16002 0.91581,0.37177 1.85359,0.6893 2.79382,0.99377 0.62903,0.20189 1.24829,0.43426 1.8852,0.61076 0.32564,0.0962 0.6428,0.20845 0.93545,0.38031 0.13198,0.0999 0.25905,0.17533 0.42324,0.2004 0.73365,0.16303 -0.23042,1.68331 -0.90139,1.61262 -0.54078,0.21729 -1.0561,0.51558 -1.55934,0.81057 -1.22187,0.58844 -2.3897,1.27673 -3.57751,1.9284 -1.1848,0.69369 -2.38137,1.36634 -3.5511,2.08539 -0.55567,0.37945 -1.10837,0.76344 -1.64968,1.16317 -0.12037,0.0663 -0.22347,0.15734 -0.33531,0.23556 -0.0181,0.003 -0.0362,0.006 -0.0544,0.009 -1.39967,0.64295 -2.30894,-1.33647 -0.90927,-1.97942 v 0 c -0.0156,0.002 -0.0311,0.003 -0.0466,0.005 0.0484,-0.01 0.21242,-0.0553 0.27548,-0.10862 0.62509,-0.27194 1.22238,-0.60316 1.84522,-0.8804 1.22299,-0.62676 2.44302,-1.25933 3.65924,-1.89904 1.1705,-0.66818 2.3494,-1.32083 3.46343,-2.08271 0.59865,-0.34098 1.17271,-0.7244 1.78731,-1.03774 0.0422,-0.0209 0.72538,-0.22803 0.72182,-0.21003 -0.31707,1.60513 -0.98628,1.51865 -0.36848,1.57678 0.071,-0.01 0.16809,-0.0187 0.0482,-0.0547 -0.25463,-0.11546 -0.49581,-0.25683 -0.7496,-0.3756 -0.5614,-0.29678 -1.15859,-0.51773 -1.75733,-0.72652 -0.93238,-0.31152 -1.88567,-0.5567 -2.84475,-0.77123 -1.122,-0.31276 -2.23874,-0.65139 -3.344,-1.01815 -1.08389,-0.34814 -2.1488,-0.75346 -3.20552,-1.17616 -0.81579,-0.35239 -1.62366,-0.72074 -2.41489,-1.1258 -0.43742,-0.21772 -0.879,-0.43714 -1.275,-0.72545 0.70056,-1.10668 0.98366,-1.3219 1.26803,-2.0876 0.0971,0.0128 0.17969,0.10476 0.27,0.14388 0.12502,0.0836 0.2439,0.17446 0.36768,0.25876 0.13817,0.0731 0.27963,0.1287 0.42226,0.18434 -0.0695,-0.0677 0.14585,0.0975 0.19798,0.0962 0.2504,0.121 0.4924,0.25418 0.72252,0.41096 0.0949,0.0638 0.17114,0.14421 0.27285,0.1977 0.10896,0.027 -0.009,2.6e-4 0.0693,0.0489 0.30544,0.17125 0.6165,0.32995 0.90867,0.52374 0.44524,0.21768 0.88268,0.44226 1.32606,0.66246 0.42173,0.19574 0.86025,0.34407 1.30731,0.47202 0.65712,0.1893 1.31659,0.37024 1.97028,0.57127 0.70657,0.22003 1.39662,0.47984 2.084,0.75356 0.39943,0.1457 0.80087,0.28 1.21338,0.38334 0.24185,0.0502 0.47714,0.12609 0.72011,0.17059 0.19539,0.0424 0.3937,0.0457 0.59108,0.0772 0.12973,0.0205 0.26185,0.0288 0.38428,0.0742 0.0168,0.004 0.0333,0.0105 0.0504,0.0107 0.0178,1.6e-4 -0.0684,-0.02 -0.0514,-0.0147 0.11385,0.0235 0.54414,0.1201 0.17244,0.0482 -1.08933,0.005 -0.96446,2.73068 -0.11233,2.4099 -0.11886,-0.24161 -0.50621,-0.19646 -0.73398,-0.27716 -1.09151,-0.17601 -2.19718,-0.22211 -3.30074,-0.26517 -1.98221,-0.0366 -3.96399,-0.0933 -5.94676,-0.0925 -2.52108,-0.0766 -5.04376,-0.033 -7.56571,-0.0534 -3.12446,0.006 -6.24771,0.0984 -9.37081,0.18332 -3.59107,0.11215 -7.18196,0.22943 -10.77406,0.30508 -3.82963,0.0938 -7.65961,0.17359 -11.48898,0.27824 -3.85036,0.0752 -7.70102,0.13092 -11.55159,0.19393 -3.86093,0.0636 -7.72163,0.13959 -11.58166,0.24571 -3.85548,0.10102 -7.71047,0.21851 -11.56625,0.30729 -3.708175,0.0839 -7.416581,0.15717 -11.124732,0.24194 -3.582268,0.1124 -7.163358,0.26169 -10.745319,0.3838 -3.423039,0.0943 -6.847057,0.1512 -10.271543,0.13746 -3.261955,-0.0164 -6.523971,-0.0104 -9.785929,-0.0222 -3.28902,0.002 -6.578243,-2.6e-4 -9.866603,0.076 -3.495988,0.0823 -6.991218,0.20727 -10.480331,0.44865 -3.575574,0.2461 -7.146444,0.54895 -10.713755,0.89519 -3.214248,0.29593 -6.428957,0.583 -9.649128,0.80851 -2.520758,0.1944 -5.040733,0.37765 -7.570603,0.38276 -2.249929,0.0927 -4.5007916,0.15381 -6.7519851,0.20695 -2.4713059,0.0482 -4.9416042,0.12796 -7.4103692,0.2515 -2.5353534,0.16035 -5.0663668,0.38188 -7.6027909,0.52188 -2.0839988,0.11434 -4.1728288,0.13486 -6.2595158,0.10421 -1.454049,-0.0493 -2.913461,-0.22349 -4.367166,-0.0932 -0.953154,-0.0235 -0.919959,-1.37143 0.03319,-1.34796 z"
       inkscape:connector-curvature="0"
       inkscape:export-xdpi="96"
       inkscape:export-ydpi="96" />
    <path
       style="opacity:1;fill:#000000;fill-opacity:1;stroke:none;stroke-width:0.56499994;stroke-miterlimit:4;stroke-dasharray:none;stroke-opacity:1"
       id="path11565"
       d="m -17.632285,196.766 c -0.07254,1.23475 0.160086,2.45618 0.380481,3.66468 0.100023,0.72182 0.401597,1.42271 0.402953,2.15498 -0.07946,0.38891 -0.349088,0.55845 -0.652301,0.77538 0.02554,0.31432 -0.418964,0.35044 -0.444505,0.0361 v 0 c -0.311064,-0.13204 -0.613003,-0.22862 -0.790677,-0.53749 -0.213466,-0.70105 -0.157912,-1.46443 -0.274649,-2.18433 -0.122936,-1.25312 -0.168155,-2.52202 -0.463759,-3.75106 -0.111923,-1.30281 1.730534,-1.4611 1.842457,-0.15828 z"
       inkscape:connector-curvature="0"
       inkscape:export-xdpi="96"
       inkscape:export-ydpi="96" />
    <path
       style="opacity:1;fill:#000000;fill-opacity:1;stroke:none;stroke-width:0.56499994;stroke-miterlimit:4;stroke-dasharray:none;stroke-opacity:1"
       id="path11567"
       d="m 45.011271,194.79435 c -0.121516,1.18344 0.02633,2.3752 0.215691,3.5435 0.263628,0.93416 0.233076,1.7477 -0.223851,2.60263 0.03723,0.11155 -0.120528,0.1642 -0.157758,0.0526 v 0 c -1.074415,-0.50687 -1.368213,-1.2501 -1.492967,-2.39814 -0.141192,-1.23187 -0.185296,-2.47682 -0.410916,-3.69714 -0.07319,-1.46357 1.996614,-1.56707 2.069801,-0.1035 z"
       inkscape:connector-curvature="0"
       inkscape:export-xdpi="96"
       inkscape:export-ydpi="96" />
    <path
       style="opacity:1;fill:#000000;fill-opacity:1;stroke:none;stroke-width:0.56499994;stroke-miterlimit:4;stroke-dasharray:none;stroke-opacity:1"
       id="path11569"
       d="m 99.898178,193.09305 c 0.116372,1.36301 0.709812,2.60876 1.180972,3.87321 0.31886,0.69198 0.19735,1.27882 -0.0333,1.96435 0.0565,0.10312 -0.0893,0.18307 -0.14584,0.0799 v 0 c -0.82881,-0.2289 -1.25941,-0.47478 -1.647569,-1.2858 -0.599628,-1.31736 -0.917623,-2.73532 -1.513613,-4.05416 -0.408392,-1.52692 1.751007,-2.10448 2.1594,-0.57755 z"
       inkscape:connector-curvature="0"
       inkscape:export-xdpi="96"
       inkscape:export-ydpi="96" />
    <path
       style="opacity:1;fill:#000000;fill-opacity:1;stroke:none;stroke-width:0.56499994;stroke-miterlimit:4;stroke-dasharray:none;stroke-opacity:1"
       id="path11571"
       d="m 162.46557,193.93932 c -0.79176,0.74469 -1.29579,1.70637 -1.6751,2.71072 -0.23879,0.7336 -0.30746,1.50536 -0.72549,2.16655 -0.45388,0.37615 -0.19218,0.2048 -0.80218,0.48701 -0.007,0.11741 -0.17274,0.10793 -0.16604,-0.009 v 0 c -0.58187,-0.36606 -0.34446,-0.14652 -0.73336,-0.63499 -0.30399,-0.98267 -0.0139,-1.93969 0.36729,-2.8665 0.52582,-1.17693 1.21978,-2.25064 1.91725,-3.33177 1.04543,-1.28526 2.86306,0.1932 1.81763,1.47846 z"
       inkscape:connector-curvature="0"
       inkscape:export-xdpi="96"
       inkscape:export-ydpi="96" />
    <path
       style="opacity:1;fill:#000000;fill-opacity:1;stroke:none;stroke-width:0.56499994;stroke-miterlimit:4;stroke-dasharray:none;stroke-opacity:1"
       id="path11573"
       d="m -19.837261,198.93172 c -1.547975,-0.25222 -3.123891,-0.25462 -4.688192,-0.2915 -1.27042,-0.0477 -2.54588,-0.0245 -3.803807,-0.22809 -0.582393,-0.19498 -1.291317,-0.5874 -1.369536,-1.28572 -0.01794,-0.16014 0.124425,-0.74562 0.175247,-0.96829 -0.04716,-0.10773 0.105185,-0.17443 0.152349,-0.0667 v 0 c 0.817589,0.009 0.486723,-1.12666 1.370658,-1.0029 1.20059,0.0324 2.39395,0.18537 3.594451,0.22523 1.525925,0.0739 3.068503,0.16512 4.585937,-0.0617 2.601936,0.0121 2.584828,3.69179 -0.01711,3.6797 z"
       inkscape:connector-curvature="0"
       inkscape:export-xdpi="96"
       inkscape:export-ydpi="96" />
    <path
       style="opacity:1;fill:#000000;fill-opacity:1;stroke:none;stroke-width:0.56499994;stroke-miterlimit:4;stroke-dasharray:none;stroke-opacity:1"
       id="path11575"
       d="m -15.388143,161.98795 c -1.434556,-0.10485 -2.865981,-0.25887 -4.302748,-0.33722 -1.111923,-0.0285 -2.213508,-0.18756 -3.322099,-0.25412 -0.577585,-0.0792 -1.034009,-0.0135 -1.333115,-0.57469 -0.121534,-0.46672 -0.06734,-0.21335 -0.151555,-0.76238 -0.117579,-0.002 -0.114561,-0.16842 0.003,-0.16628 v 0 c 0.192576,-0.54428 0.07677,-0.30184 0.32843,-0.73608 0.483288,-0.42402 0.994905,-0.26718 1.574302,-0.10827 1.03206,0.31485 2.094412,0.53142 3.142015,0.78577 1.380563,0.296 2.784042,0.47168 4.18989,0.59257 1.103584,0.0906 0.975446,1.65131 -0.128138,1.5607 z"
       inkscape:connector-curvature="0"
       inkscape:export-xdpi="96"
       inkscape:export-ydpi="96" />
    <path
       style="opacity:1;fill:#000000;fill-opacity:1;stroke:none;stroke-width:0.56499994;stroke-miterlimit:4;stroke-dasharray:none;stroke-opacity:1"
       id="path11577"
       d="m -14.476686,121.97341 c -1.436973,-0.0979 -2.88011,-0.0847 -4.320075,-0.10869 -1.322866,0.0223 -2.644634,-0.0332 -3.966624,-0.0691 -0.890273,-0.0518 -1.562722,-0.38748 -1.764612,-1.29448 -0.09324,-0.0717 0.0081,-0.20352 0.101344,-0.13186 v 0 c 0.201849,-0.17369 0.306814,-0.42383 0.511013,-0.58875 0.307519,-0.24837 0.734296,-0.27797 1.104222,-0.34362 1.333118,-0.091 2.665508,-0.21344 4.003211,-0.20314 1.443804,-0.0362 2.890562,-0.0153 4.331521,-0.11528 2.01874,0 2.01874,2.85493 0,2.85493 z"
       inkscape:connector-curvature="0"
       inkscape:export-xdpi="96"
       inkscape:export-ydpi="96" />
    <path
       style="opacity:1;fill:#000000;fill-opacity:1;stroke:none;stroke-width:0.56499994;stroke-miterlimit:4;stroke-dasharray:none;stroke-opacity:1"
       id="path11581"
       d="m -13.847544,83.824187 c -1.29636,0.0404 -2.589356,0.143169 -3.885725,0.185246 -1.091684,0.06082 -2.182219,0.0186 -3.272943,-0.03395 -0.906234,-0.09068 -1.829502,-0.116774 -2.710899,-0.35987 -0.395944,-0.133766 -0.721801,-0.37691 -1.048961,-0.626872 -0.116173,0.01826 -0.141984,-0.146042 -0.02581,-0.164293 v 0 c 0.263828,-0.3556 0.526622,-0.678307 0.930885,-0.886259 0.899463,-0.389131 1.881531,-0.496713 2.851773,-0.579493 1.067902,-0.05434 2.134842,-0.101836 3.204563,-0.08982 1.248601,-0.02424 2.502115,-0.02056 3.743344,-0.174818 1.93049,-0.151162 2.144264,2.578963 0.213775,2.730124 z"
       inkscape:connector-curvature="0"
       inkscape:export-xdpi="96"
       inkscape:export-ydpi="96" />
    <flowRoot
       xml:space="preserve"
       id="flowRoot11583"
       style="font-style:normal;font-weight:normal;font-size:40px;line-height:1.25;font-family:sans-serif;letter-spacing:0px;word-spacing:0px;fill:#000000;fill-opacity:1;stroke:none"
       transform="matrix(0.26458333,0,0,0.26458333,-14.499912,12.729545)"
       inkscape:export-xdpi="96"
       inkscape:export-ydpi="96"><flowRegion
         id="flowRegion11585"><rect
           id="rect11587"
           width="688.02777"
           height="80.390266"
           x="169.49425"
           y="759.65887" /></flowRegion><flowPara
         id="flowPara11589"><flowSpan
   style="font-style:normal;font-variant:normal;font-weight:normal;font-stretch:normal;font-family:Purisa;-inkscape-font-specification:Purisa"
   id="flowSpan11591">Air Temperature (C</flowSpan>)</flowPara></flowRoot>    <flowRoot
       xml:space="preserve"
       id="flowRoot11583-9"
       style="font-style:normal;font-weight:normal;font-size:40px;line-height:1.25;font-family:sans-serif;letter-spacing:0px;word-spacing:0px;fill:#000000;fill-opacity:1;stroke:none"
       transform="matrix(-0.00420514,-0.26454991,0.26454991,-0.00420514,-267.09335,237.07757)"
       inkscape:transform-center-x="0.69477498"
       inkscape:transform-center-y="-2.1992524"
       inkscape:export-xdpi="96"
       inkscape:export-ydpi="96"><flowRegion
         id="flowRegion11585-0"><rect
           id="rect11587-5"
           width="688.02777"
           height="80.390266"
           x="169.49425"
           y="759.65887" /></flowRegion><flowPara
         id="flowPara11589-0"><flowSpan
   style="font-style:normal;font-variant:normal;font-weight:normal;font-stretch:normal;font-family:Purisa;-inkscape-font-specification:Purisa"
   id="flowSpan11591-9">Cold tolerance (C</flowSpan>)</flowPara></flowRoot>    <flowRoot
       xml:space="preserve"
       id="flowRoot11620"
       style="fill:black;fill-opacity:1;stroke:none;font-family:sans-serif;font-style:normal;font-weight:normal;font-size:40px;line-height:1.25;letter-spacing:0px;word-spacing:0px"><flowRegion
         id="flowRegion11622"><rect
           id="rect11624"
           width="137.58336"
           height="100.91461"
           x="-209.61357"
           y="861.00348" /></flowRegion><flowPara
         id="flowPara11626"></flowPara></flowRoot>    <text
       xml:space="preserve"
       style="font-style:normal;font-weight:normal;font-size:10.58333302px;line-height:1.25;font-family:sans-serif;letter-spacing:0px;word-spacing:0px;fill:#000000;fill-opacity:1;stroke:none;stroke-width:0.26458332"
       x="-41.653461"
       y="234.60637"
       id="text11630"><tspan
         sodipodi:role="line"
         id="tspan11628"
         x="-41.653461"
         y="244.26187"
         style="stroke-width:0.26458332" /></text>
    <flowRoot
       xml:space="preserve"
       id="flowRoot11632"
       style="font-style:normal;font-weight:normal;font-size:40px;line-height:1.25;font-family:sans-serif;letter-spacing:0px;word-spacing:0px;fill:#000000;fill-opacity:1;stroke:none"
       transform="matrix(0.26458333,0,0,0.26458333,-19.654762,104.32143)"
       inkscape:export-xdpi="96"
       inkscape:export-ydpi="96"><flowRegion
         id="flowRegion11634"><rect
           id="rect11636"
           width="115.71429"
           height="95.714287"
           x="200"
           y="369.66254" /></flowRegion><flowPara
         id="flowPara11638"
         style="-inkscape-font-specification:Purisa;font-family:Purisa;font-weight:normal;font-style:normal;font-stretch:normal;font-variant:normal">-10</flowPara></flowRoot>    <flowRoot
       xml:space="preserve"
       id="flowRoot11632-9"
       style="font-style:normal;font-weight:normal;font-size:40px;line-height:1.25;font-family:sans-serif;letter-spacing:0px;word-spacing:0px;fill:#000000;fill-opacity:1;stroke:none"
       transform="matrix(0.26458333,0,0,0.26458333,43.728598,103.42447)"
       inkscape:export-xdpi="96"
       inkscape:export-ydpi="96"><flowRegion
         id="flowRegion11634-4"><rect
           id="rect11636-4"
           width="115.71429"
           height="95.714287"
           x="200"
           y="369.66254" /></flowRegion><flowPara
         id="flowPara11638-1"
         style="-inkscape-font-specification:Purisa;font-family:Purisa;font-weight:normal;font-style:normal;font-stretch:normal;font-variant:normal">0</flowPara></flowRoot>    <flowRoot
       xml:space="preserve"
       id="flowRoot11632-9-4"
       style="font-style:normal;font-weight:normal;font-size:40px;line-height:1.25;font-family:sans-serif;letter-spacing:0px;word-spacing:0px;fill:#000000;fill-opacity:1;stroke:none"
       transform="matrix(0.26458333,0,0,0.26458333,103.61235,101.98641)"
       inkscape:export-xdpi="96"
       inkscape:export-ydpi="96"><flowRegion
         id="flowRegion11634-4-0"><rect
           id="rect11636-4-2"
           width="115.71429"
           height="95.714287"
           x="200"
           y="369.66254" /></flowRegion><flowPara
         id="flowPara11638-1-9"
         style="font-style:normal;font-variant:normal;font-weight:normal;font-stretch:normal;font-family:Purisa;-inkscape-font-specification:Purisa">10</flowPara></flowRoot>    <flowRoot
       xml:space="preserve"
       id="flowRoot11632-5"
       style="font-style:normal;font-weight:normal;font-size:40px;line-height:1.25;font-family:sans-serif;letter-spacing:0px;word-spacing:0px;fill:#000000;fill-opacity:1;stroke:none"
       transform="matrix(0.26458333,0,0,0.26458333,-105.66164,15.828999)"
       inkscape:export-xdpi="96"
       inkscape:export-ydpi="96"><flowRegion
         id="flowRegion11634-0"><rect
           id="rect11636-6"
           width="115.71429"
           height="95.714287"
           x="200"
           y="369.66254" /></flowRegion><flowPara
         id="flowPara11638-0"
         style="font-style:normal;font-variant:normal;font-weight:normal;font-stretch:normal;font-family:Purisa;-inkscape-font-specification:Purisa">-20</flowPara></flowRoot>    <flowRoot
       xml:space="preserve"
       id="flowRoot11632-5-8"
       style="font-style:normal;font-weight:normal;font-size:40px;line-height:1.25;font-family:sans-serif;letter-spacing:0px;word-spacing:0px;fill:#000000;fill-opacity:1;stroke:none"
       transform="matrix(0.26458333,0,0,0.26458333,-100.74791,-22.724568)"
       inkscape:export-xdpi="96"
       inkscape:export-ydpi="96"><flowRegion
         id="flowRegion11634-0-8"><rect
           id="rect11636-6-4"
           width="115.71429"
           height="95.714287"
           x="200"
           y="369.66254" /></flowRegion><flowPara
         id="flowPara11638-0-2"
         style="font-style:normal;font-variant:normal;font-weight:normal;font-stretch:normal;font-family:Purisa;-inkscape-font-specification:Purisa">-10</flowPara></flowRoot>    <flowRoot
       xml:space="preserve"
       id="flowRoot11632-5-85"
       style="font-style:normal;font-weight:normal;font-size:40px;line-height:1.25;font-family:sans-serif;letter-spacing:0px;word-spacing:0px;fill:#000000;fill-opacity:1;stroke:none"
       transform="matrix(0.26458333,0,0,0.26458333,-102.86076,55.563396)"
       inkscape:export-xdpi="96"
       inkscape:export-ydpi="96"><flowRegion
         id="flowRegion11634-0-5"><rect
           id="rect11636-6-48"
           width="115.71429"
           height="95.714287"
           x="200"
           y="369.66254" /></flowRegion><flowPara
         id="flowPara11638-0-4"
         style="font-style:normal;font-variant:normal;font-weight:normal;font-stretch:normal;font-family:Purisa;-inkscape-font-specification:Purisa">-30</flowPara></flowRoot>    <path
       style="opacity:1;fill:#000000;fill-opacity:1;stroke:none;stroke-width:0.56499994;stroke-miterlimit:4;stroke-dasharray:none;stroke-opacity:1"
       id="path11760"
       d="m 30.938946,155.94569 c -1.331794,1.08341 -2.573909,2.27393 -3.861565,3.41013 -1.471983,1.20455 -2.951917,2.39946 -4.368834,3.66897 -0.531197,0.44228 -0.968043,1.16763 -1.721595,1.17694 -0.659811,0.0565 -0.655552,0.14594 -0.950899,-1.17684 -0.02765,-0.12386 0.246534,-0.0604 0.369801,-0.0906 0.0553,-0.10379 0.202073,-0.0256 0.146777,0.0782 v 0 c 0.464287,1.00593 -0.314241,-0.60682 -0.878084,-0.523 -0.04716,-0.69132 1.092108,-1.02823 1.48114,-1.40917 1.552496,-1.10342 3.071424,-2.25228 4.590922,-3.40047 1.366277,-0.97215 2.777929,-1.91247 3.976995,-3.09152 0.959762,-0.85938 2.175105,0.49793 1.215342,1.35731 z"
       inkscape:connector-curvature="0"
       inkscape:export-xdpi="96"
       inkscape:export-ydpi="96" />
    <path
       style="opacity:1;fill:#000000;fill-opacity:1;stroke:none;stroke-width:0.56499994;stroke-miterlimit:4;stroke-dasharray:none;stroke-opacity:1"
       id="path11762"
       d="m 23.696195,157.26634 c 1.294437,0.33735 2.629097,0.48212 3.943381,0.72635 0.75879,0.1124 1.360638,0.68019 2.079548,0.88692 0.221795,0.0638 0.458841,0.0501 0.688261,0.0751 0.116906,0.0128 0.09886,0.17808 -0.01805,0.16533 v 0 c -0.230195,-0.0251 -0.459277,-0.0862 -0.690584,-0.0754 -0.75807,0.0355 -1.498049,0.41849 -2.275043,0.29283 -1.304796,-0.17683 -2.603003,-0.4824 -3.924306,-0.4736 -1.129643,-0.13915 -0.93286,-1.7367 0.196783,-1.59756 z"
       inkscape:connector-curvature="0"
       inkscape:export-xdpi="96"
       inkscape:export-ydpi="96" />
    <path
       style="opacity:1;fill:#000000;fill-opacity:1;stroke:none;stroke-width:0.56499994;stroke-miterlimit:4;stroke-dasharray:none;stroke-opacity:1"
       id="path11764"
       d="m 58.468466,130.75141 c -1.28659,1.0903 -2.344793,2.42438 -3.411609,3.72357 -0.854983,1.06714 -1.810388,2.04137 -2.741975,3.03901 -0.257527,0.22568 -0.495417,0.68702 -0.888016,0.70683 -0.12324,0.006 -0.245115,-0.0322 -0.368459,-0.0357 -0.0587,0.1019 -0.202808,0.0189 -0.144116,-0.083 v 0 c -0.04197,-0.1302 -0.117623,-0.25209 -0.133998,-0.3879 -0.05362,-0.44472 0.441907,-0.77826 0.698008,-1.05304 1.003985,-0.9037 2.043406,-1.76403 3.031472,-2.68506 1.198895,-1.18305 2.286698,-2.48292 3.126673,-3.94919 0.512289,-0.58832 1.344306,0.13616 0.83202,0.72449 z"
       inkscape:connector-curvature="0"
       inkscape:export-xdpi="96"
       inkscape:export-ydpi="96" />
    <path
       style="opacity:1;fill:#000000;fill-opacity:1;stroke:none;stroke-width:0.56499994;stroke-miterlimit:4;stroke-dasharray:none;stroke-opacity:1"
       id="path11766"
       d="m 51.075187,129.39833 c 1.30279,0.8116 2.730767,1.40975 4.143306,2.00286 1.181114,0.49656 2.361462,0.99462 3.5413,1.49413 0.670303,0.29422 1.379437,0.50039 1.973223,0.94049 0.367776,0.31495 0.4851,0.72848 0.52828,1.19091 0.01164,0.0589 0.02331,0.11788 0.03497,0.17681 0.101087,0.0601 0.01611,0.20305 -0.08498,0.14296 v 0 c -0.06006,0.0163 -0.120118,0.0326 -0.180176,0.0489 -0.4168,0.12832 -0.827802,0.21089 -1.252648,0.0539 -0.618051,-0.27214 -1.136656,-0.71983 -1.747623,-1.00769 -1.126723,-0.58822 -2.26685,-1.15147 -3.415417,-1.69571 -1.377468,-0.65814 -2.776132,-1.3142 -4.250232,-1.72348 -1.148445,-0.50204 -0.438449,-2.12619 0.709996,-1.62415 z"
       inkscape:connector-curvature="0"
       inkscape:export-xdpi="96"
       inkscape:export-ydpi="96" />
    <path
       style="opacity:1;fill:#000000;fill-opacity:1;stroke:none;stroke-width:0.56499994;stroke-miterlimit:4;stroke-dasharray:none;stroke-opacity:1"
       id="path11768"
       d="m 100.89333,113.1064 c -1.098742,1.0093 -1.963721,2.24745 -2.888553,3.41274 -0.943637,1.19513 -1.93521,2.35055 -2.95066,3.48485 -0.46111,0.45413 -0.95468,1.2256 -1.683033,0.98994 -0.110212,-0.0513 -0.220424,-0.10252 -0.330636,-0.15378 -0.613233,0.28361 -1.01431,-0.58363 -0.40108,-0.86724 v 0 c -0.07017,-0.0698 -0.14034,-0.13955 -0.21051,-0.20933 -0.178499,-0.64239 0.580615,-0.99622 0.971042,-1.38981 1.063895,-0.97303 2.041464,-2.03387 2.923826,-3.17514 0.925512,-1.19075 1.87267,-2.38116 2.633347,-3.6856 1.126687,-1.36914 3.062937,0.22423 1.936257,1.59337 z"
       inkscape:connector-curvature="0"
       inkscape:export-xdpi="96"
       inkscape:export-ydpi="96" />
    <path
       style="opacity:1;fill:#000000;fill-opacity:1;stroke:none;stroke-width:0.56499994;stroke-miterlimit:4;stroke-dasharray:none;stroke-opacity:1"
       id="path11770"
       d="m 94.467552,112.83072 c 0.983178,0.67344 1.95412,1.36422 2.927591,2.05175 0.746045,0.53012 1.53834,0.98653 2.345547,1.41549 0.71089,0.329 1.37619,0.74106 1.858,1.36541 0.2214,0.43737 0.0738,0.27753 0.39674,0.5182 0.1105,0.0403 0.0536,0.19651 -0.0569,0.15627 v 0 c -0.41211,-0.0275 -0.18935,-0.049 -0.66125,0.1162 -0.85298,0.0975 -1.655929,-0.16108 -2.393246,-0.58955 -0.861769,-0.48333 -1.682858,-1.03144 -2.464686,-1.63625 -0.932225,-0.69366 -1.851866,-1.41119 -2.839429,-2.0249 -0.970584,-0.62766 -0.08294,-2.00028 0.887643,-1.37262 z"
       inkscape:connector-curvature="0"
       inkscape:export-xdpi="96"
       inkscape:export-ydpi="96" />
    <path
       style="opacity:1;fill:#000000;fill-opacity:1;stroke:none;stroke-width:0.56499994;stroke-miterlimit:4;stroke-dasharray:none;stroke-opacity:1"
       id="path11772"
       d="m 129.65285,89.624391 c -1.48572,1.086199 -3.00236,2.128314 -4.52522,3.161649 -1.70215,1.159417 -3.43138,2.277102 -5.18428,3.357986 -1.09657,0.661969 -2.16298,1.379074 -3.36864,1.827689 -0.64316,0.25373 -1.14595,0.163605 -1.58649,-0.362318 -0.0377,-0.0332 -0.0753,-0.0664 -0.113,-0.0996 -0.11706,0.01127 -0.13298,-0.154284 -0.0159,-0.165544 v 0 c -0.005,-0.03636 -0.01,-0.07273 -0.0143,-0.109091 -0.0507,-0.624771 0.13096,-1.048678 0.69667,-1.367316 1.03999,-0.65541 2.19004,-1.094949 3.26793,-1.682224 1.75833,-0.95151 3.48228,-1.969468 5.11439,-3.126912 1.45774,-1.043686 2.89056,-2.125778 4.23824,-3.309754 1.32614,-1.054055 2.8168,0.82138 1.49067,1.875435 z"
       inkscape:connector-curvature="0"
       inkscape:export-xdpi="96"
       inkscape:export-ydpi="96" />
    <path
       style="opacity:1;fill:#000000;fill-opacity:1;stroke:none;stroke-width:0.56499994;stroke-miterlimit:4;stroke-dasharray:none;stroke-opacity:1"
       id="path11774"
       d="m 117.96892,91.942144 c 0.82135,0.950309 1.79594,1.759495 2.76034,2.560296 0.88161,0.707459 1.79435,1.374089 2.67021,2.088991 0.79545,0.703535 1.4144,1.5762 1.95166,2.485636 0.0996,0.06258 0.0111,0.203388 -0.0885,0.140806 v 0 c -1.09995,-0.105003 -2.16481,-0.407786 -3.09177,-1.028711 -0.9433,-0.684344 -1.82643,-1.442717 -2.7031,-2.209728 -0.96944,-0.850538 -1.89561,-1.75323 -2.90492,-2.555764 -1.0476,-0.994251 0.35848,-2.47578 1.40608,-1.481526 z"
       inkscape:connector-curvature="0"
       inkscape:export-xdpi="96"
       inkscape:export-ydpi="96" />
    <path
       style="opacity:1;fill:#000000;fill-opacity:1;stroke:none;stroke-width:0.56499994;stroke-miterlimit:4;stroke-dasharray:none;stroke-opacity:1"
       id="path11776"
       d="m 22.66874,155.94647 c 1.006298,0.56024 2.103945,0.93209 3.162899,1.37883 0.866983,0.35534 1.726371,0.72915 2.599464,1.06953 0.771226,0.30285 1.56754,0.53443 2.358901,0.77774 0.652836,0.18707 1.302713,0.38264 1.948569,0.59246 0.547751,0.18563 1.080275,0.4131 1.611577,0.64077 0.397346,0.17278 0.798851,0.33058 1.210553,0.46532 0.191355,0.0495 0.374706,0.13003 0.569894,0.16367 0.114758,-0.004 0.06097,0.0951 0.02992,0.16592 -0.233606,0.21198 -0.155123,0.47324 0.160512,0.49475 0.102061,-0.0584 0.184682,0.0859 0.08262,0.14434 v 0 c -0.196602,0.27225 -0.284925,0.57566 -0.607478,0.7573 -0.0485,0.0847 -0.07664,0.17266 -0.179277,0.10396 -0.211915,-0.0923 -0.439282,-0.14494 -0.647025,-0.24855 -0.42513,-0.17807 -0.854906,-0.344 -1.274866,-0.53406 -0.500573,-0.21918 -1.003847,-0.43147 -1.510641,-0.6359 -0.608068,-0.24988 -1.233866,-0.45211 -1.859267,-0.65376 -0.818779,-0.2709 -1.627682,-0.56702 -2.430706,-0.88183 -0.886986,-0.35806 -1.759257,-0.74805 -2.612648,-1.18056 -1.02196,-0.47525 -2.039144,-0.99852 -3.143429,-1.25508 -0.965098,-0.37507 -0.434673,-1.73992 0.530424,-1.36485 z"
       inkscape:connector-curvature="0"
       inkscape:export-xdpi="96"
       inkscape:export-ydpi="96" />
    <path
       style="opacity:1;fill:#000000;fill-opacity:1;stroke:none;stroke-width:0.56499994;stroke-miterlimit:4;stroke-dasharray:none;stroke-opacity:1"
       id="path11778"
       d="m 155.33862,96.301628 c -0.96545,1.036515 -1.85159,2.14658 -2.7318,3.255893 -0.72434,0.882099 -1.44219,1.769539 -2.17014,2.648659 -0.48355,0.58985 -0.96098,1.189 -1.55448,1.67234 -0.567,0.4098 -1.22185,0.46727 -1.89444,0.51724 -0.61155,-0.0392 -1.19854,-0.0293 -1.76651,0.20383 -0.1088,0.0446 -0.17193,-0.10922 -0.0631,-0.15386 v 0 c 0.58744,-0.24092 0.88913,-0.60665 1.15269,-1.18424 0.23521,-0.4507 0.38611,-0.94429 0.67741,-1.36499 0.44542,-0.51426 0.96843,-0.95471 1.41717,-1.46671 0.76668,-0.829274 1.5223,-1.668649 2.27507,-2.510563 0.89871,-0.984957 1.80273,-1.998097 2.4246,-3.186409 1.10931,-1.57937 3.34288,-0.01056 2.23356,1.56881 z"
       inkscape:connector-curvature="0"
       inkscape:export-xdpi="96"
       inkscape:export-ydpi="96" />
    <path
       style="opacity:1;fill:#000000;fill-opacity:1;stroke:none;stroke-width:0.56499994;stroke-miterlimit:4;stroke-dasharray:none;stroke-opacity:1"
       id="path11780"
       d="m 145.78516,97.288449 c 1.28887,0.815994 2.72601,1.363234 4.14116,1.917227 1.46244,0.514866 2.90031,1.072754 4.27012,1.800774 0.49735,0.18437 0.83135,0.622 1.28501,0.87087 0.20334,0.11154 0.43473,0.16177 0.65209,0.24265 0.11356,0.0306 0.0703,0.19116 -0.0432,0.1606 v 0 c -0.2306,-0.0396 -0.45809,-0.10761 -0.69179,-0.11895 -0.52431,-0.0254 -1.04916,0.14834 -1.57469,0.0178 -1.59107,-0.2101 -3.10838,-0.6711 -4.56216,-1.35843 -1.41275,-0.60936 -2.80976,-1.28285 -4.28609,-1.724326 -1.27863,-0.572442 -0.46907,-2.380691 0.80956,-1.808247 z"
       inkscape:connector-curvature="0"
       inkscape:export-xdpi="96"
       inkscape:export-ydpi="96" />
    <path
       style="opacity:1;fill:#000000;fill-opacity:1;stroke:none;stroke-width:0.56499994;stroke-miterlimit:4;stroke-dasharray:none;stroke-opacity:1"
       id="path11782"
       d="m 32.23786,132.30039 c -1.621587,0.74515 -3.03711,1.86964 -4.446273,2.94919 -1.46128,1.10223 -2.878388,2.26567 -4.397198,3.28907 -0.62461,0.39972 -1.207423,0.70098 -1.931267,0.43889 -0.103727,0.0554 -0.182086,-0.0913 -0.07836,-0.14669 v 0 c 0.03784,-0.73178 0.503135,-1.17114 1.055168,-1.61603 1.435875,-1.10686 2.951662,-2.10721 4.366509,-3.24265 1.451438,-1.12679 2.905527,-2.25638 4.284578,-3.47116 1.272352,-0.81094 2.419196,0.98844 1.146843,1.79938 z"
       inkscape:connector-curvature="0"
       inkscape:export-xdpi="96"
       inkscape:export-ydpi="96" />
    <path
       style="opacity:1;fill:#000000;fill-opacity:1;stroke:none;stroke-width:0.56499994;stroke-miterlimit:4;stroke-dasharray:none;stroke-opacity:1"
       id="path11784"
       d="m 24.884472,131.8206 c 1.649447,0.1972 3.299391,0.39225 4.952611,0.5559 1.842823,0.13193 3.605583,0.21066 5.406176,0.65627 0.269663,0.0452 0.539329,0.0905 0.808995,0.13572 0.117525,-0.004 0.123444,0.16201 0.0059,0.1662 v 0 c -0.272558,0.0645 -0.545113,0.12911 -0.817668,0.19366 -0.802982,0.18191 -0.966351,0.26038 -1.796013,0.28168 -1.250744,0.0321 -2.487798,-0.22281 -3.727437,-0.33632 -1.621139,-0.19423 -3.251229,-0.40206 -4.886574,-0.38328 -0.897901,-0.0382 -0.843912,-1.308 0.05399,-1.26983 z"
       inkscape:connector-curvature="0"
       inkscape:export-xdpi="96"
       inkscape:export-ydpi="96" />
    <path
       style="opacity:1;fill:#000000;fill-opacity:1;stroke:none;stroke-width:0.56499994;stroke-miterlimit:4;stroke-dasharray:none;stroke-opacity:1"
       id="path11786"
       d="m 84.568677,96.670989 c -1.535123,0.709075 -2.960492,1.632373 -4.387424,2.533946 -1.422749,0.894685 -2.847824,1.785615 -4.267941,2.684485 -0.874828,0.49895 -1.680268,1.17035 -2.651122,1.47653 -0.41334,0.0213 -0.666919,-0.27252 -0.977749,-0.4896 -0.104743,0.0535 -0.180348,-0.0947 -0.0756,-0.14813 v 0 c -0.07794,-0.38204 -0.193294,-0.73996 0.03917,-1.09583 0.730488,-0.69038 1.694857,-1.06854 2.533433,-1.60544 1.445763,-0.842814 2.878566,-1.706536 4.292092,-2.60264 1.478087,-0.905528 2.98309,-1.767041 4.450249,-2.689735 1.369251,-0.738855 2.414149,1.197559 1.044898,1.936414 z"
       inkscape:connector-curvature="0"
       inkscape:export-xdpi="96"
       inkscape:export-ydpi="96" />
    <path
       style="opacity:1;fill:#000000;fill-opacity:1;stroke:none;stroke-width:0.56499994;stroke-miterlimit:4;stroke-dasharray:none;stroke-opacity:1"
       id="path11788"
       d="m 72.936292,96.8456 c 1.6651,0.764101 3.415073,1.326089 5.149236,1.909882 1.777204,0.578204 3.54338,1.186299 5.307129,1.803978 1.20459,0.43779 1.947857,0.80956 2.592845,1.94086 0.154866,0.0763 0.04689,0.29536 -0.107976,0.21901 v 0 c -1.169276,0.1776 -2.046817,-0.10645 -3.097525,-0.62867 -1.677863,-0.7608 -3.406256,-1.40979 -5.142672,-2.02328 -1.736293,-0.601918 -3.477106,-1.203641 -5.25558,-1.669557 C 71.28416,98.0057 71.838705,96.453477 72.936292,96.8456 Z"
       inkscape:connector-curvature="0"
       inkscape:export-xdpi="96"
       inkscape:export-ydpi="96" />
    <path
       style="opacity:1;fill:#000000;fill-opacity:1;stroke:none;stroke-width:0.56499994;stroke-miterlimit:4;stroke-dasharray:none;stroke-opacity:1"
       id="path11790"
       d="m 8.2715316,172.34603 c -1.3810747,0.48102 -2.6467519,1.23544 -3.8755306,2.01687 -1.0525342,0.70206 -2.0476047,1.48394 -2.9983941,2.31743 -0.3772274,0.19278 -0.66232557,0.93041 -1.12237912,0.92004 -0.0477798,-0.0169 -0.11606077,-0.008 -0.14333941,-0.0506 -0.03905968,-0.0612 0.009198,-0.15312 -0.0269884,-0.21601 -0.51692062,-0.89845 -0.92789762,-0.8128 -0.23397377,-0.80637 0.10048457,-0.0611 0.18688226,0.081 0.0863977,0.1421 v 0 c -0.05489955,0.10107 -0.05209508,0.32666 -0.16469864,0.30322 -1.41349516,-0.29433 -0.88488656,-0.31342 -1.06615916,-0.95845 0.1112929,-0.54899 0.88870207,-0.77311 1.24528253,-1.13627 C 1.061814,174.09661 2.1596222,173.3244 3.3016026,172.62 c 1.3425384,-0.83305 2.7217692,-1.59476 4.156363,-2.2586 1.4033437,-0.57527 2.2169096,1.40935 0.813566,1.98463 z"
       inkscape:connector-curvature="0"
       inkscape:export-xdpi="96"
       inkscape:export-ydpi="96" />
    <path
       style="opacity:1;fill:#000000;fill-opacity:1;stroke:none;stroke-width:0.56499994;stroke-miterlimit:4;stroke-dasharray:none;stroke-opacity:1"
       id="path11792"
       d="m 2.841013,169.94444 c 1.1189126,1.03213 2.3859643,1.89164 3.6814595,2.68464 1.3141508,0.78001 2.7022999,1.42076 4.0777235,2.08225 0.934707,0.45086 1.82155,0.95413 2.270876,1.92261 0.10393,0.055 0.02611,0.20201 -0.07782,0.14698 v 0 c -1.028756,0.18442 -1.970071,-0.16885 -2.8985458,-0.60177 -1.4346994,-0.68914 -2.8467253,-1.43221 -4.1694073,-2.32108 -1.298195,-0.88875 -2.5527047,-1.83508 -3.8242062,-2.76048 -0.8153936,-0.66463 0.1245257,-1.81777 0.9399193,-1.15315 z"
       inkscape:connector-curvature="0"
       inkscape:export-xdpi="96"
       inkscape:export-ydpi="96" />
  </g>
</svg>
